<?xml version="1.0" standalone="no"?>
<!DOCTYPE svg PUBLIC "-//W3C//DTD SVG 1.1//EN" "http://www.w3.org/Graphics/SVG/1.1/DTD/svg11.dtd" >
<svg xmlns="http://www.w3.org/2000/svg">
<metadata></metadata>
<defs>
<font id="magallanesmagamaga" horiz-adv-x="772" >
<font-face units-per-em="2048" ascent="1536" descent="-512" />
<missing-glyph horiz-adv-x="483" />
<glyph horiz-adv-x="0" />
<glyph unicode="&#xd;" horiz-adv-x="2048" />
<glyph horiz-adv-x="2048" />
<glyph horiz-adv-x="2048" />
<glyph unicode=" "  horiz-adv-x="483" />
<glyph unicode="&#x09;" horiz-adv-x="483" />
<glyph unicode="&#xa0;" horiz-adv-x="483" />
<glyph unicode="!" horiz-adv-x="481" d="M147 70q0 -43 26 -72t67 -29q45 0 78.5 36t33.5 85q0 43 -25.5 71.5t-64.5 28.5q-47 0 -81 -35.5t-34 -84.5zM233 375h97l137 1059h-150z" />
<glyph unicode="&#x22;" horiz-adv-x="606" d="M252 1139h90l55 346h-125zM500 1139h92l51 346h-123z" />
<glyph unicode="#" horiz-adv-x="1210" d="M123 309h153l-112 -309h125l110 309h342l-110 -309h123l110 309h185l12 121h-150l97 268h182l12 121h-147l96 264h-123l-96 -264h-344l96 264h-123l-96 -264h-191l-12 -121h158l-98 -268h-187zM444 430l97 268h344l-99 -268h-342z" />
<glyph unicode="$" horiz-adv-x="1183" d="M76 180l14 -20q14 -23 53 -54.5t95 -62.5q57 -33 153 -53.5t205 -20.5q174 0 301 58.5t192.5 163t65.5 237.5q0 88 -30.5 147.5t-98.5 98.5q-66 37 -137.5 58.5t-198.5 47.5q-184 37 -264 93.5t-80 168.5q0 131 104.5 212t290.5 81q76 0 150 -14t125 -35q41 -16 81 -39.5 t58 -36.5l16 -16l66 117l-51 37q-58 43 -179.5 77.5t-250.5 34.5q-172 0 -298 -59.5t-192.5 -159.5t-66.5 -225q0 -170 133 -252q66 -41 137.5 -64.5t185.5 -48.5q137 -31 211 -60.5t108 -74.5t34 -119q0 -143 -106.5 -225t-293.5 -82q-86 0 -166 19.5t-131 48.5 q-41 23 -81 54.5t-56 49.5l-16 21zM475 -580h127l29 435h-92zM715 1534h92l63 436h-127z" />
<glyph unicode="%" horiz-adv-x="1292" d="M123 -31h117l1079 1491h-117zM197 1124q0 -121 63.5 -193.5t177.5 -72.5q139 0 222 96.5t83 245.5q0 119 -63.5 189.5t-177.5 70.5q-139 0 -222 -93t-83 -243zM291 1135q0 104 56 168.5t145 64.5q74 0 115.5 -47t41.5 -131q0 -104 -55 -173t-148 -69q-73 0 -114 50.5 t-41 136.5zM696 236q0 -121 64.5 -194t179.5 -73q139 0 222 96.5t83 245.5q0 119 -63.5 189.5t-177.5 70.5q-139 0 -223.5 -93t-84.5 -242zM793 246q0 106 55 169.5t145 63.5q72 0 115 -48t43 -130q0 -104 -54.5 -173t-146.5 -69q-76 0 -116.5 50.5t-40.5 136.5z" />
<glyph unicode="&#x26;" horiz-adv-x="1269" d="M164 340q0 -176 118.5 -274.5t329.5 -98.5q209 0 371 115l102 -137l99 88l-101 137q138 151 158 354h-129q-14 -145 -100 -256l-369 506q-12 16 -31.5 45t-31.5 49q-43 68 -54 101q-23 68 -22 116q0 111 73.5 182.5t194.5 71.5q80 0 160 -30.5t110 -55.5q25 -25 33 -34 l68 94l-13 14q-27 37 -110 82q-41 23 -105.5 37t-134.5 14q-190 0 -301.5 -107.5t-111.5 -279.5q0 -137 90 -276l-58 -35q-27 -16 -77 -63.5t-76 -86.5q-33 -49 -57.5 -122.5t-24.5 -149.5zM295 356q0 221 221 359l397 -539q-119 -88 -288 -88q-154 0 -242 70.5t-88 197.5z " />
<glyph unicode="'" horiz-adv-x="358" d="M252 1139h90l55 346h-125z" />
<glyph unicode="(" horiz-adv-x="520" d="M135 283q0 -147 18.5 -297t45.5 -250q23 -84 53.5 -171t44.5 -118q14 -29 20 -37l101 66l-17 32q-43 77 -94 267q-27 96 -44 234t-17 282q0 209 40 420t95 354q45 117 110.5 235.5t100.5 163.5q23 31 41 49l-88 66l-41 -53q-45 -55 -104.5 -169t-118.5 -257 q-63 -154 -104.5 -374t-41.5 -443z" />
<glyph unicode=")" horiz-adv-x="520" d="M-8 -524l88 -66l43 53q43 58 104.5 172.5t120.5 255.5q63 154 103.5 372t40.5 442q0 147 -18.5 297.5t-45.5 250.5q-23 84 -53.5 171t-46.5 118q-14 29 -21 37l-100 -66l43 -86q47 -98 87 -303.5t40 -423.5q0 -207 -39 -416.5t-94 -357.5q-45 -117 -110.5 -236.5 t-98.5 -162.5z" />
<glyph unicode="*" horiz-adv-x="911" d="M211 1006l49 -111l268 184l-55 -334h123l18 334l226 -184l73 111l-249 151l280 148l-49 112l-266 -184l53 332h-123l-14 -332l-230 184l-73 -112l252 -148z" />
<glyph unicode="+" horiz-adv-x="1048" d="M147 686h388l-46 -436h123l45 436h390l12 123h-389l47 438h-123l-47 -438h-387z" />
<glyph unicode="," horiz-adv-x="462" d="M127 -289l27 -43l18 8q23 13 51.5 41.5t55.5 69.5q29 43 47 120t18 165q0 119 -96 118q-49 0 -83 -35.5t-34 -84.5q0 -43 24.5 -72t67.5 -29q12 0 19 2l-2 -14q-10 -72 -38 -136.5t-48 -86.5q-14 -14 -27 -23z" />
<glyph unicode="-" d="M190 508h498l12 121h-497z" />
<glyph unicode="." horiz-adv-x="452" d="M131 70q0 -43 25.5 -72t68.5 -29q47 0 81 36t34 85q0 43 -26.5 71.5t-65.5 28.5q-49 0 -83 -35.5t-34 -84.5z" />
<glyph unicode="/" horiz-adv-x="753" d="M10 -508h123l711 1942h-123z" />
<glyph unicode="0" horiz-adv-x="1318" d="M178 610q0 -293 123 -467t356 -174q156 0 281 72t203 197q76 121 115.5 273.5t39.5 319.5q0 188 -58 331t-167.5 220.5t-257.5 77.5q-182 0 -327.5 -108.5t-226.5 -302t-81 -439.5zM315 623q0 213 62.5 375.5t173.5 251.5t250 89q164 0 260 -137t96 -375q0 -186 -49 -350 q-53 -170 -169 -278.5t-269 -108.5q-172 0 -263.5 146.5t-91.5 386.5z" />
<glyph unicode="1" horiz-adv-x="878" d="M133 1067l55 -104l508 321l-135 -1284h137l152 1434h-133z" />
<glyph unicode="2" horiz-adv-x="1099" d="M88 0h911l13 121h-682l313 241q131 100 190.5 154.5t124.5 134.5q66 84 95.5 176.5t29.5 210.5q0 195 -111.5 308.5t-314.5 113.5q-109 0 -223.5 -39t-163.5 -71l-53 -43l51 -105l43 35q49 37 144.5 69.5t187.5 32.5q137 0 219 -88t82 -229q-6 -207 -160 -383 q-59 -55 -260 -209l-426 -324z" />
<glyph unicode="3" horiz-adv-x="1159" d="M74 156l20 -21q20 -20 61.5 -48t90.5 -52q55 -29 134 -47.5t157 -18.5q170 0 297 56.5t195.5 160t68.5 240.5q0 145 -75 221t-206 88q307 61 307 377q0 158 -114.5 253t-315.5 95q-102 0 -212.5 -38t-157.5 -70l-56 -43l49 -107l45 35q51 37 143.5 69.5t176.5 32.5 q141 0 222 -63.5t81 -173.5q0 -305 -410 -305l-12 -123q393 0 393 -264q0 -150 -109.5 -235t-295.5 -85q-68 0 -134.5 17.5t-115.5 42.5q-39 18 -77 46.5t-52 45.5l-18 16z" />
<glyph unicode="4" horiz-adv-x="1071" d="M88 346h672l-37 -346h135l37 346h160l12 121h-160l45 416h-135l-45 -416h-512l571 952h-147l-586 -970z" />
<glyph unicode="5" horiz-adv-x="1159" d="M90 147l21 -18q43 -43 157 -98q57 -29 137 -46.5t160 -17.5q260 0 407.5 133t147.5 377q0 115 -38 198t-105 126q-129 82 -309 82q-137 0 -279 -37l86 467h655l13 121h-778l-136 -752l62 18q70 23 172 40.5t182 17.5q336 0 336 -297q0 -182 -104.5 -277.5t-301.5 -95.5 q-63 0 -131.5 16.5t-119.5 38.5q-41 18 -84 46t-58 42q-10 6 -20 17z" />
<glyph unicode="6" horiz-adv-x="1196" d="M176 598q0 -291 117 -460t338 -169q150 0 269.5 67.5t188 186.5t68.5 269q0 199 -112.5 305t-319.5 106q-229 0 -403 -168q35 283 170 443.5t342 160.5q73 0 149 -24.5t102 -44.5q12 -8 19.5 -15.5t13.5 -11.5l70 105l-37 28q-39 33 -127 58.5t-182 25.5 q-207 0 -357.5 -107.5t-229.5 -302t-79 -452.5zM311 606q186 174 402 174q141 0 222 -82t81 -225q0 -178 -96.5 -280.5t-274.5 -102.5q-168 0 -255 135t-79 381z" />
<glyph unicode="7" horiz-adv-x="970" d="M164 1313h754l-652 -1313h158l653 1333l10 101h-911z" />
<glyph unicode="8" horiz-adv-x="1222" d="M141 322q0 -162 118 -257.5t351 -95.5q266 0 407.5 123t141.5 324q0 252 -254 344q283 104 283 368q0 150 -112.5 241t-307.5 91q-152 0 -266.5 -51t-177 -142t-62.5 -206q0 -229 244 -313q-365 -111 -365 -426zM281 344q2 158 103 239t304 126q68 -13 113 -29t100 -47 q119 -68 119 -225q0 -141 -102.5 -228.5t-294.5 -87.5q-168 0 -255 68.5t-87 183.5zM401 1065q0 121 98.5 197.5t254.5 76.5q135 0 214 -62.5t79 -166.5q0 -244 -289 -309l-60 12l-26 6q-35 6 -78 19q-31 8 -56.5 22t-31.5 19q-23 12 -38 27.5t-36 43.5q-31 41 -31 115z" />
<glyph unicode="9" horiz-adv-x="1198" d="M162 82l37 -29q41 -33 129 -58.5t182 -25.5q207 0 357.5 107.5t229.5 302t79 452.5q0 291 -117 460t-340 169q-150 0 -269.5 -67.5t-187 -186.5t-67.5 -268q0 -197 112.5 -304.5t317.5 -107.5q225 0 403 166q-35 -281 -170 -441.5t-340 -160.5q-74 0 -148.5 24.5 t-101.5 45.5l-35 26zM334 956q0 178 98 280.5t275 102.5q168 0 255 -136t76 -384q-193 -170 -401 -170q-141 0 -222 82t-81 225z" />
<glyph unicode=":" horiz-adv-x="479" d="M145 70q0 -43 26 -72t67 -29q47 0 80.5 36t33.5 85q0 43 -25.5 71.5t-66.5 28.5q-47 0 -81 -35.5t-34 -84.5zM229 870q0 -43 26 -71.5t64 -28.5q47 0 81 36t34 85q0 43 -25.5 71.5t-66.5 28.5q-45 0 -79 -35.5t-34 -85.5z" />
<glyph unicode=";" horiz-adv-x="493" d="M143 -289l27 -43l18 8q50 27 107 109q31 43 49 119t18 166q0 121 -98 120q-49 0 -81.5 -35.5t-32.5 -84.5q0 -43 24.5 -72t65.5 -29q12 0 18 2l-2 -14q-10 -72 -38 -136.5t-48 -86.5q-14 -14 -27 -23zM233 870q0 -43 25 -71.5t66 -28.5q47 0 80.5 36t33.5 85 q0 43 -25.5 71.5t-64.5 28.5q-47 0 -81 -35.5t-34 -85.5z" />
<glyph unicode="&#x3c;" horiz-adv-x="735" d="M137 465l492 -416l14 141l-401 340l473 342l14 142l-577 -416z" />
<glyph unicode="=" horiz-adv-x="980" d="M172 295h700l13 121h-701zM219 752h701l14 120h-701z" />
<glyph unicode="&#x3e;" horiz-adv-x="735" d="M119 49l577 416l15 133l-490 416l-16 -142l401 -342l-473 -340z" />
<glyph unicode="?" horiz-adv-x="1015" d="M193 1307l49 -105l47 35q55 39 150.5 70.5t185.5 31.5q127 0 200.5 -76.5t73.5 -205.5q0 -98 -45 -189.5t-111 -150.5q-53 -47 -128.5 -92t-114.5 -60l-49 -18l-25 -238h133l19 174l47 21q47 18 114.5 66t134.5 112q70 66 116 171t46 218q0 180 -104.5 284.5 t-294.5 104.5q-104 0 -222 -39t-165 -71zM362 70q0 -43 25 -72t66 -29q47 0 80.5 36t33.5 85q0 43 -24.5 71.5t-65.5 28.5q-47 0 -81 -35.5t-34 -84.5z" />
<glyph unicode="@" horiz-adv-x="1865" d="M143 383q0 -256 87 -456.5t251 -307.5l76 100q-141 97 -215 274t-74 402q0 287 104.5 506t291 338t426.5 119q197 0 343 -84t225 -240.5t79 -367.5q0 -291 -94.5 -434.5t-268.5 -143.5q-45 0 -39 55l74 709l-41 33q-43 39 -134 70.5t-187 31.5q-162 0 -284 -72.5 t-188.5 -202.5t-66.5 -298q0 -201 96 -323t273 -122q186 0 335 142l-2 -15q-2 -8 -2 -20q0 -43 30 -65.5t85 -22.5q246 0 391.5 174t145.5 508q0 238 -92.5 418t-263.5 279t-402 99q-279 0 -497 -138t-340 -384t-122 -561zM633 420q0 211 107.5 335t289.5 124q154 0 250 -72 l-61 -588q-142 -141 -306 -141q-139 0 -209.5 90t-70.5 252z" />
<glyph unicode="A" horiz-adv-x="1288" d="M49 0h141l189 403h618l101 -403h143l-373 1434h-145zM436 524l342 733l185 -733h-527z" />
<glyph unicode="B" horiz-adv-x="1280" d="M180 0h545q240 0 371 112.5t131 319.5q0 254 -258 303q264 78 264 383q0 315 -381 316h-520zM330 121l57 549h404q145 0 223 -63.5t78 -184.5q0 -154 -87 -227.5t-270 -73.5h-405zM399 784l56 529h379q127 0 194.5 -56.5t67.5 -160.5q0 -143 -84 -227.5t-211 -84.5h-402z " />
<glyph unicode="C" horiz-adv-x="1355" d="M174 625q0 -303 154.5 -479.5t457.5 -176.5q88 0 179.5 18.5t154.5 45.5q51 20 105.5 50t77.5 46q16 10 24 18l-35 107l-59 -41q-70 -47 -192.5 -85t-237.5 -38q-242 0 -366 147.5t-124 401.5q0 215 75 372.5t214 242.5t330 85q98 0 195.5 -29.5t134.5 -56.5 q29 -23 41 -34l69 108l-41 33q-43 37 -153.5 68.5t-233.5 31.5q-236 0 -410 -104.5t-267 -293t-93 -437.5z" />
<glyph unicode="D" horiz-adv-x="1413" d="M180 0h422q387 0 587 206t200 609q0 305 -158 462t-461 157h-438zM330 121l125 1192h276q520 0 520 -508q0 -356 -157.5 -520t-499.5 -164h-264z" />
<glyph unicode="E" horiz-adv-x="1230" d="M180 0h953l12 121h-815l55 520h670l12 121h-670l58 551h815l14 121h-952z" />
<glyph unicode="F" horiz-adv-x="1183" d="M180 0h137l68 641h672l12 121h-672l58 551h815l14 121h-952z" />
<glyph unicode="G" horiz-adv-x="1398" d="M174 625q0 -301 152.5 -478.5t449.5 -177.5q86 0 173 18.5t149 45.5q51 20 105 51t73 45q10 6 22 18l58 558h-561l-13 -119h435l-41 -389q-193 -107 -383 -107q-238 0 -359 147.5t-121 399.5q0 215 75 373.5t214 243.5t330 85q66 0 131 -12t108 -31q35 -16 68 -36.5 t49 -32.5q10 -10 12 -15l72 109l-16 14q-14 14 -50 36t-81 40q-51 20 -126 34.5t-155 14.5q-236 0 -410 -104.5t-267 -293t-93 -437.5z" />
<glyph unicode="H" horiz-adv-x="1417" d="M180 0h137l70 653h784l-69 -653h135l152 1434h-136l-69 -660h-785l70 660h-137z" />
<glyph unicode="I" horiz-adv-x="497" d="M180 0h137l152 1434h-137z" />
<glyph unicode="J" horiz-adv-x="518" d="M72 0l55 -72l23 11q46 16 126 102q37 41 66 110.5t37 149.5l119 1133h-136l-118 -1137q-6 -55 -25.5 -107.5t-44.5 -85.5q-23 -31 -48.5 -58.5t-37.5 -33.5q-8 -8 -16 -12z" />
<glyph unicode="K" horiz-adv-x="1337" d="M180 0h137l60 563h299q31 0 59 4l187 -444q31 -74 82 -104.5t131 -30.5q121 0 202 73l-32 78l-19 -12q-18 -12 -50 -22.5t-58 -10.5q-92 0 -129 88l-179 412q170 66 263.5 268.5t132.5 571.5h-136q-43 -389 -146 -569.5t-296 -180.5h-299l80 750h-137z" />
<glyph unicode="L" horiz-adv-x="1132" d="M180 0h946l13 121h-809l139 1313h-137z" />
<glyph unicode="M" horiz-adv-x="1587" d="M180 0h137l115 1098l311 -1098h101l542 1100l-114 -1100h135l152 1434h-123l-617 -1229l-364 1229h-123z" />
<glyph unicode="N" horiz-adv-x="1400" d="M180 0h137l125 1184l662 -1184h115l151 1434h-133l-125 -1190l-659 1190h-121z" />
<glyph unicode="O" horiz-adv-x="1533" d="M172 625q0 -195 66.5 -343.5t199.5 -230.5t326 -82q180 0 327.5 68.5t239.5 189.5q90 117 136 267.5t46 318.5q0 195 -71.5 341t-204.5 226t-315 80q-223 0 -393.5 -105.5t-263.5 -295t-93 -434.5zM309 635q0 213 75 372.5t211 245.5t314 86q219 0 343 -141t124 -389 q0 -194 -61 -352q-66 -166 -206 -266.5t-331 -100.5q-227 0 -348 148.5t-121 396.5z" />
<glyph unicode="P" horiz-adv-x="1286" d="M180 0h137l48 440h395q266 0 411.5 142.5t145.5 414.5q0 215 -118 326t-335 111h-532zM377 561l78 752h395q328 0 328 -326q0 -426 -406 -426h-395z" />
<glyph unicode="Q" horiz-adv-x="1538" d="M174 623q0 -281 134 -456t390 -194q-4 -61 -4 -88q0 -215 107.5 -312t331.5 -97l12 121q-166 0 -241 66.5t-75 230.5q0 23 5 79q223 16 378 138q154 119 229 299t75 403q0 195 -72 341t-206 226t-316 80q-221 0 -391.5 -106.5t-263.5 -296t-93 -434.5zM311 635 q0 213 74 372.5t210 245.5t314 86q219 0 344 -141t125 -389q0 -194 -61 -352q-66 -166 -207 -266.5t-332 -100.5q-227 0 -347 147.5t-120 397.5z" />
<glyph unicode="R" horiz-adv-x="1329" d="M180 0h137l58 543h291q59 0 131 10l143 -430q25 -76 70 -105.5t127 -29.5q121 0 202 73l-32 78l-21 -12q-20 -12 -53 -22.5t-59 -10.5q-43 0 -67 19.5t-40 68.5l-133 400q299 109 299 469q0 383 -428 383h-473zM387 664l68 649h340q154 0 226.5 -66.5t72.5 -204.5 q0 -195 -96.5 -286.5t-315.5 -91.5h-295z" />
<glyph unicode="S" horiz-adv-x="1239" d="M102 180l15 -20q14 -23 54 -54.5t95 -62.5q57 -33 153.5 -53.5t205.5 -20.5q174 0 299 59.5t191.5 163t66.5 236.5q0 88 -31 147.5t-98 98.5q-66 37 -137.5 58.5t-198.5 47.5q-182 37 -262 93.5t-80 166.5q0 131 103.5 213t291.5 82q76 0 149.5 -14t122.5 -35 q39 -16 79 -38.5t61 -37.5l16 -16l66 117l-52 37q-57 43 -179 77.5t-251 34.5q-172 0 -298 -59.5t-192.5 -159.5t-66.5 -225q0 -170 133 -252q66 -41 137.5 -64.5t186.5 -48.5q137 -31 212 -60.5t108.5 -74.5t33.5 -119q0 -143 -106.5 -225t-292.5 -82q-86 0 -166 19.5 t-131 48.5q-43 20 -83 53t-56 51l-17 21z" />
<glyph unicode="T" horiz-adv-x="1249" d="M150 1313h544l-137 -1313h135l137 1313h545l12 121h-1224z" />
<glyph unicode="U" horiz-adv-x="1382" d="M221 438q0 -248 110.5 -357.5t350.5 -109.5q190 2 312 64.5t189.5 198t92.5 362.5l88 838h-135l-88 -848q-21 -185 -72 -293.5t-141 -156.5t-234 -48q-176 0 -258 84t-82 277q0 72 8 137l91 848h-136l-88 -838q-8 -76 -8 -158z" />
<glyph unicode="V" horiz-adv-x="1345" d="M195 1434l405 -1434h145l709 1434h-156l-608 -1264l-336 1264h-159z" />
<glyph unicode="W" horiz-adv-x="2004" d="M207 1434l303 -1434h145l475 1225l222 -1225h143l606 1434h-155l-500 -1223l-221 1223h-144l-479 -1223l-240 1223h-155z" />
<glyph unicode="X" horiz-adv-x="1263" d="M33 0h164l493 618l369 -618h172l-434 713l587 721h-161l-498 -621l-369 621h-172l434 -715z" />
<glyph unicode="Y" horiz-adv-x="1341" d="M201 1434l461 -889l-58 -545h133l58 543l647 891h-160l-539 -760l-376 760h-166z" />
<glyph unicode="Z" horiz-adv-x="1120" d="M84 0h952l13 121h-789l914 1192l14 121h-952l-15 -121h783l-908 -1192z" />
<glyph unicode="[" horiz-adv-x="598" d="M100 -608h385l13 108h-273l205 1962h272l13 109h-385z" />
<glyph unicode="\" horiz-adv-x="753" d="M215 1434l299 -1942h123l-301 1942h-121z" />
<glyph unicode="]" horiz-adv-x="598" d="M-14 -608h385l229 2179h-385l-12 -109h272l-205 -1962h-272z" />
<glyph unicode="^" horiz-adv-x="999" d="M213 1051h109l333 432l242 -432h111l-271 526h-141z" />
<glyph unicode="_" horiz-adv-x="966" d="M127 -104h692l10 94h-692z" />
<glyph unicode="`" horiz-adv-x="489" d="M231 1511l158 -391h119l-121 391h-156z" />
<glyph unicode="a" horiz-adv-x="1044" d="M96 188q0 -104 75 -161.5t206 -57.5q205 0 362 146l-2 -21q-1 -8 -1 -15q0 -39 27 -63q32 -28 89 -28q104 0 186 59l-16 70l-18 -8q-23 -9 -52.5 -16t-48.5 -7q-42 0 -42 43q0 6 1 12l58 549q2 14 2 39q0 258 -338 258q-197 0 -355 -63l19 -103l39 15q45 16 119.5 29.5 t140.5 13.5q129 0 188.5 -43t59.5 -134q0 -25 -2 -36l-23 -207q-74 20 -174 20q-500 0 -500 -291zM221 203q0 178 367 178q86 0 174 -16l-17 -150q-157 -139 -333 -139q-190 0 -191 127z" />
<glyph unicode="b" horiz-adv-x="1095" d="M152 102l41 -32q43 -37 136 -69t187 -32q162 0 284 73t188.5 204t66.5 299q0 203 -95.5 322.5t-275.5 119.5q-176 0 -328 -143l74 692l-131 -39zM283 145l61 590q137 144 307 144q137 0 208 -89.5t71 -250.5q0 -215 -105.5 -338t-289.5 -123q-156 0 -252 67z" />
<glyph unicode="c" horiz-adv-x="980" d="M139 416q0 -203 108.5 -325t311.5 -122q90 0 188.5 34t137.5 63q35 25 47 36l-33 97l-39 -31q-43 -33 -125 -61.5t-162 -28.5q-147 0 -226 95t-79 253q0 205 104.5 329t286.5 124q70 0 135.5 -20.5t90.5 -37.5l24 -22l60 96l-31 23q-33 27 -108.5 48t-161.5 21 q-162 0 -282 -73.5t-183.5 -203.5t-63.5 -294z" />
<glyph unicode="d" horiz-adv-x="1153" d="M141 414q0 -203 96.5 -324t274.5 -121q176 0 332 142v-15q10 -108 112 -108h2q106 0 189 59l-19 70l-18 -8q-23 -9 -52.5 -16t-47.5 -7q-42 0 -42 43q0 6 1 12l147 1399l-131 -39l-59 -579q-119 65 -248 65h-4q-158 0 -279 -72.5t-187.5 -203.5t-66.5 -297zM266 418 q0 215 106.5 338t291.5 123q145 0 251 -72l-61 -588q-141 -141 -307 -141q-139 0 -210 89t-71 251z" />
<glyph unicode="e" horiz-adv-x="1042" d="M139 416q0 -203 109.5 -325t312.5 -122q88 0 186.5 36t137.5 69q27 18 47 39l-33 86l-39 -31q-43 -33 -126 -61.5t-161 -28.5q-153 0 -231 95q-74 90 -74 243v16h717l8 19q8 20 16.5 62t8.5 83q0 168 -95.5 279.5t-271.5 111.5q-160 0 -275.5 -73.5t-176 -202.5 t-60.5 -295zM279 532q26 160 121.5 253.5t240.5 93.5q125 0 191.5 -73t66.5 -202q0 -31 -2 -45l-2 -27h-616z" />
<glyph unicode="f" horiz-adv-x="681" d="M141 852h158l-90 -852h125l90 852h315l11 106h-316l25 228q27 241 211 241h2q92 0 141 -30l53 88l-18 14q-23 14 -72 26.5t-102 12.5q-145 0 -233.5 -89t-106.5 -267l-23 -224h-129z" />
<glyph unicode="g" horiz-adv-x="1026" d="M51 -295q0 -127 108.5 -199.5t309.5 -72.5q231 0 353 92t122 256q0 266 -416 266q-215 0 -215 76q0 35 27 59q35 35 125 47q14 2 35 2l53 -2q215 0 338 114t123 302q0 172 -119 264q188 82 223 394h-123q-37 -330 -200 -340q-81 24 -158 24h-6q-152 0 -259.5 -55 t-162.5 -150.5t-55 -214.5q0 -221 182 -301q-145 -55 -146 -157q0 -82 93 -123q-231 -84 -232 -281zM178 -276q0 156 209 221q80 -6 139 -6q291 0 291 -170q0 -227 -338 -228q-301 0 -301 183zM279 575q0 131 89 217.5t250 86.5q129 0 200 -69t71 -175q0 -141 -85 -219 t-239 -78q-141 0 -213.5 61.5t-72.5 175.5z" />
<glyph unicode="h" horiz-adv-x="1124" d="M147 0h127l74 711q160 168 342 168q96 0 140 -45.5t44 -143.5q0 -16 -4 -61l-51 -488q-2 -12 -2 -37q0 -61 26.5 -88.5t88.5 -27.5q111 0 188 59l-16 70l-19 -8q-22 -9 -53 -16t-49 -7q-40 0 -40 43q0 6 1 12l53 498q4 49 4 72q0 276 -270 276q-199 0 -371 -172l76 721 l-131 -39z" />
<glyph unicode="i" horiz-adv-x="421" d="M147 0h127l101 958h-127zM250 1235q0 -37 22.5 -61.5t57.5 -24.5q43 0 72.5 29.5t29.5 74.5q0 37 -22.5 62.5t-59.5 25.5q-41 0 -70.5 -30.5t-29.5 -75.5z" />
<glyph unicode="j" horiz-adv-x="421" d="M-41 -475l45 -72l23 10q47 17 127 103q37 41 65.5 110.5t36.5 149.5l119 1132h-127l-119 -1136q-10 -80 -52 -158t-75 -106q-39 -31 -43 -33zM248 1235q0 -37 22.5 -61.5t57.5 -24.5q43 0 73.5 29.5t30.5 74.5q0 37 -23.5 62.5t-60.5 25.5q-41 0 -70.5 -30.5t-29.5 -75.5 z" />
<glyph unicode="k" horiz-adv-x="1099" d="M147 0h127l41 381h240q31 0 57 6l133 -291q27 -57 64 -82.5t98 -25.5q117 0 185 78l-27 63l-16 -10q-19 -13 -49.5 -23t-53.5 -10q-55 0 -84 55l-135 279q223 111 266 538h-127q-25 -240 -100.5 -355.5t-206.5 -115.5h-233l110 1049l-131 -39z" />
<glyph unicode="l" horiz-adv-x="518" d="M160 117q0 -70 31.5 -99.5t105.5 -29.5q135 0 229 63l-16 70l-25 -10q-78 -25 -131 -25q-68 0 -68 70q0 8 1 18l143 1362l-129 -39l-139 -1331q-2 -18 -2 -49z" />
<glyph unicode="m" horiz-adv-x="1755" d="M145 0h125l74 711q160 168 342 168q96 0 140 -45.5t44 -143.5q0 -16 -4 -61l-65 -629h125l67 639q4 33 4 51l-2 39q158 150 326 150q96 0 139 -44t43 -143q0 -18 -4 -63l-51 -488q-2 -14 -2 -37q0 -61 27.5 -88.5t89.5 -27.5q106 0 188 59l-16 70l-19 -8q-22 -9 -53 -16 t-49 -7q-42 0 -42 43q0 6 1 12l53 498q4 49 4 72q0 276 -268 276q-92 0 -184 -43q-82 -39 -119 -67.5t-74 -69.5q-39 180 -258 180q-199 0 -371 -172l17 156l-129 -39z" />
<glyph unicode="n" horiz-adv-x="1122" d="M145 0h125l74 711q173 161 340 161h2q96 0 140 -44t44 -140q0 -18 -4 -59l-51 -488q-2 -14 -2 -37q0 -61 27.5 -88.5t89.5 -27.5q106 0 188 59l-18 70l-19 -8q-22 -9 -52 -16t-48 -7q-42 0 -42 43q0 6 1 12l53 498q4 49 4 72q0 276 -270 276q-199 0 -371 -172l17 156 l-129 -39z" />
<glyph unicode="o" horiz-adv-x="1122" d="M137 414q0 -203 110.5 -324t311.5 -121q160 0 278.5 74t182 203t63.5 293q0 202 -108.5 325t-310.5 123q-164 0 -283 -74.5t-181.5 -206t-62.5 -292.5zM264 420q0 129 46 233.5t134 165t209 60.5q150 0 227.5 -95.5t77.5 -255.5q0 -201 -103 -325.5t-284 -124.5 q-147 0 -227 92t-80 250z" />
<glyph unicode="p" horiz-adv-x="1099" d="M88 -539h125l59 572q120 -64 263 -64q160 0 277.5 72t182 202t64.5 304q0 203 -95.5 321.5t-275.5 118.5q-193 0 -330 -149l13 133l-129 -39zM285 147l61 590q135 142 307 142q139 0 210 -88.5t71 -249.5q0 -219 -102.5 -341t-282.5 -122q-164 0 -264 69z" />
<glyph unicode="q" horiz-adv-x="1093" d="M139 414q0 -203 96.5 -324t276.5 -121q172 0 328 137l-68 -645h125l145 1389q0 2 -14 16q-49 39 -121 74q-47 20 -107.5 33.5t-119.5 13.5q-162 0 -285 -72.5t-189.5 -202.5t-66.5 -298zM266 416q0 215 105.5 339t290.5 124q152 0 251 -72l-61 -590q-139 -139 -307 -139 q-137 0 -208 88t-71 250z" />
<glyph unicode="r" horiz-adv-x="729" d="M145 0h125l68 647q157 225 311 225q78 0 113 -24l47 108l-12 7q-14 8 -48 16t-69 8q-176 0 -330 -225l23 209l-129 -39z" />
<glyph unicode="s" horiz-adv-x="954" d="M94 98l12 -12q33 -33 119 -70q43 -20 109.5 -33.5t140.5 -13.5q197 0 306.5 79t109.5 218q0 133 -109 193q-51 27 -99 41t-124 28l-78 15q-94 20 -125 47q-51 39 -51 96q0 88 78 140.5t213 52.5q76 0 152.5 -20.5t107.5 -39.5q8 -6 17.5 -11t15.5 -11l59 94l-35 22 q-41 29 -126 51.5t-181 22.5q-207 0 -317.5 -89t-110.5 -226q0 -84 36 -132t109.5 -76t208.5 -54q125 -25 178.5 -58t53.5 -98q0 -80 -76 -128t-203 -48q-88 0 -177 29.5t-122 56.5l-36 33z" />
<glyph unicode="t" horiz-adv-x="729" d="M141 852h158l-61 -576q-4 -41 -5 -59q0 -123 63.5 -185.5t180.5 -62.5q143 0 238 78l-39 90l-21 -14q-20 -17 -65 -30t-92 -13q-137 0 -138 147q0 29 2 43l62 582h315l11 106h-316l31 289l-129 -43l-27 -246h-127z" />
<glyph unicode="u" horiz-adv-x="1114" d="M170 246q0 -276 270 -277q203 0 367 152l-2 -21q-1 -8 -1 -16q0 -40 26 -66q32 -30 92 -30q104 0 186 59l-18 70l-21 -8q-20 -9 -50 -16t-48 -7q-40 0 -40 43q0 6 1 12l86 828l-131 -39l-74 -709q-156 -143 -334 -143q-96 0 -140 45t-44 143q0 16 4 62l66 630h-123 l-68 -641q-4 -49 -4 -71z" />
<glyph unicode="v" horiz-adv-x="1003" d="M152 958l284 -958h131l486 958h-140l-397 -823l-227 823h-137z" />
<glyph unicode="w" horiz-adv-x="1476" d="M158 958l225 -958h137l299 803l139 -803h136l426 958h-136l-344 -825l-141 825h-129l-309 -819l-168 819h-135z" />
<glyph unicode="x" horiz-adv-x="962" d="M53 0h162l305 383l228 -383h163l-297 469l404 489h-160l-319 -405l-232 405h-162l297 -503z" />
<glyph unicode="y" horiz-adv-x="997" d="M152 958l280 -958h14l-268 -539h117l752 1497h-136l-395 -823l-229 823h-135z" />
<glyph unicode="z" horiz-adv-x="972" d="M90 0h795l10 106h-633l713 746l10 106h-795l-10 -106h639l-719 -746z" />
<glyph unicode="{" horiz-adv-x="550" d="M113 434h20q88 0 88 -100l-2 -27l-57 -565q-4 -45 -4 -61q0 -260 268 -261l12 109q-168 0 -168 172q0 27 2 41l64 598q2 10 2 31q0 92 -64 123q16 4 31 14q20 14 38.5 52t25.5 87l59 567q10 104 65.5 158.5t143.5 54.5l12 109q-299 0 -334 -319l-57 -543 q-14 -129 -113 -129h-20z" />
<glyph unicode="|" horiz-adv-x="438" d="M100 -608h111l229 2173h-110z" />
<glyph unicode="}" horiz-adv-x="550" d="M2 -580q301 0 334 322l57 565q6 63 38 95t77 32h18l13 111h-19q-45 0 -69.5 31.5t-18.5 97.5l57 543q4 45 5 61q0 258 -269 258l-12 -109q166 0 166 -172q0 -27 -2 -41l-60 -567q-2 -10 -2 -31q0 -39 10.5 -67.5t24.5 -40.5q10 -10 25 -14q-78 -47 -90 -154l-64 -598 q-12 -113 -63.5 -163t-143.5 -50z" />
<glyph unicode="~" horiz-adv-x="903" d="M197 653l59 -55l23 25q23 27 62.5 51t72.5 24q45 0 112 -61q66 -61 127 -62q39 0 75 16.5t60 41.5q20 20 39 46t27 42l6 16l-65 43l-17 -26q-16 -29 -48 -53.5t-62 -24.5q-33 0 -103 63q-74 61 -139 62q-39 0 -77 -15.5t-66 -35.5q-23 -18 -46.5 -43t-29.5 -37z" />
<glyph unicode="&#xad;" d="M190 508h498l12 121h-497z" />
<glyph unicode="&#x2000;" horiz-adv-x="985" />
<glyph unicode="&#x2001;" horiz-adv-x="1970" />
<glyph unicode="&#x2002;" horiz-adv-x="985" />
<glyph unicode="&#x2003;" horiz-adv-x="1970" />
<glyph unicode="&#x2004;" horiz-adv-x="656" />
<glyph unicode="&#x2005;" horiz-adv-x="492" />
<glyph unicode="&#x2006;" horiz-adv-x="328" />
<glyph unicode="&#x2007;" horiz-adv-x="328" />
<glyph unicode="&#x2008;" horiz-adv-x="246" />
<glyph unicode="&#x2009;" horiz-adv-x="394" />
<glyph unicode="&#x200a;" horiz-adv-x="109" />
<glyph unicode="&#x2010;" d="M190 508h498l12 121h-497z" />
<glyph unicode="&#x2011;" d="M190 508h498l12 121h-497z" />
<glyph unicode="&#x2012;" d="M190 508h498l12 121h-497z" />
<glyph unicode="&#x2013;" horiz-adv-x="1286" d="M190 508h1000l24 121h-999z" />
<glyph unicode="&#x2014;" horiz-adv-x="2310" d="M190 508h1999l49 121h-1998z" />
<glyph unicode="&#x202f;" horiz-adv-x="394" />
<glyph unicode="&#x205f;" horiz-adv-x="492" />
<glyph unicode="&#x25fc;" horiz-adv-x="962" d="M0 0v963h963v-963h-963z" />
</font>
</defs>
</svg>
