<?xml version="1.0" standalone="no"?>
<!DOCTYPE svg PUBLIC "-//W3C//DTD SVG 1.1//EN" "http://www.w3.org/Graphics/SVG/1.1/DTD/svg11.dtd" >
<svg xmlns="http://www.w3.org/2000/svg">
<metadata></metadata>
<defs>
<font id="magamaga" horiz-adv-x="776" >
<font-face units-per-em="2048" ascent="1536" descent="-512" />
<missing-glyph horiz-adv-x="466" />
<glyph horiz-adv-x="0" />
<glyph unicode="&#xd;" horiz-adv-x="2048" />
<glyph horiz-adv-x="2048" />
<glyph horiz-adv-x="2048" />
<glyph unicode=" "  horiz-adv-x="466" />
<glyph unicode="&#x09;" horiz-adv-x="466" />
<glyph unicode="&#xa0;" horiz-adv-x="466" />
<glyph unicode="!" horiz-adv-x="497" d="M131 96q0 -53 34 -90t85 -37q49 0 83 37t34 90q0 55 -33 90q-33 37 -84 37t-85 -36.5t-34 -90.5zM145 1434l41 -1059h129l35 1059h-205z" />
<glyph unicode="&#x22;" horiz-adv-x="628" d="M106 1513l23 -374h119l22 374h-164zM356 1513l23 -374h121l20 374h-164z" />
<glyph unicode="#" horiz-adv-x="1234" d="M90 297h150l-76 -297h162l75 297h297l-75 -297h161l76 297h180v160h-137l55 215h185v159h-139l63 252h-162l-63 -252h-297l63 252h-162l-63 -252h-193v-159h148l-55 -215h-193v-160zM444 457l56 215h297l-56 -215h-297z" />
<glyph unicode="$" horiz-adv-x="1222" d="M55 170l19 -20q18 -20 62 -50t104 -59q61 -33 162.5 -52.5t213.5 -19.5q172 0 293 54.5t182.5 150.5t61.5 221q0 123 -50 198t-159.5 121t-302.5 81q-193 37 -274.5 96t-81.5 172q0 106 88 167.5t256 61.5q115 0 232.5 -34.5t164.5 -65.5l53 -41l68 160l-57 37 q-64 41 -195 76.5t-268 35.5q-170 0 -292 -55t-183.5 -149.5t-61.5 -213.5q0 -100 35 -169.5t108 -116.5q70 -45 154 -74t227 -59q145 -31 216 -61t98.5 -74t27.5 -121q0 -113 -88 -175.5t-252 -62.5q-82 0 -163.5 18.5t-137.5 45.5q-45 23 -91 53t-60 45q-14 12 -21 20z M545 -588h166l-21 443h-121zM545 1976l24 -442h121l21 442h-166z" />
<glyph unicode="%" horiz-adv-x="1294" d="M72 1161q0 -137 74.5 -220t201.5 -83t202 83t75 220q0 135 -72 219q-74 80 -205 80q-129 0 -202.5 -81t-73.5 -218zM115 -31h147l918 1491h-148zM190 1161q0 84 42 133t116 49t116 -49t42 -133q0 -86 -42 -137t-116 -51q-76 0 -115 51q-43 53 -43 137zM670 272 q0 -137 75.5 -220t202.5 -83t201 83t74 220q0 138 -74 218.5t-201 80.5q-129 0 -203.5 -80.5t-74.5 -218.5zM788 272q0 84 43 133.5t117 49.5q72 0 115 -49.5t43 -133.5q0 -86 -42 -137t-116 -51t-117 51q-43 53 -43 137z" />
<glyph unicode="&#x26;" horiz-adv-x="1277" d="M117 389q0 -201 131 -311.5t360 -110.5q211 0 363 109l121 -142l116 117l-121 144q107 149 107 344h-170q0 -115 -49 -211l-393 471l-29 37q-27 31 -31 36q-10 10 -27.5 36t-21.5 36l-18 35q-16 25 -19 43q-12 45 -12 88q0 86 58.5 138t156.5 52q80 0 161 -28.5 t109 -52.5l33 -33l76 127l-37 37q-41 41 -139.5 75.5t-210.5 34.5q-182 0 -286.5 -96t-104.5 -254q0 -156 114 -311q-238 -176 -237 -410zM289 393q0 188 155 299l420 -491q-100 -74 -256 -74q-147 0 -233 70.5t-86 195.5z" />
<glyph unicode="'" horiz-adv-x="376" d="M106 1513l23 -374h119l22 374h-164z" />
<glyph unicode="(" horiz-adv-x="538" d="M88 494q0 -186 29.5 -375t70.5 -318q33 -106 82 -214.5t74 -147.5q20 -35 31 -47l121 84l-29 41q-27 39 -66 128t-75 201q-41 123 -68 297t-27 353q0 176 27 351t66 294q33 98 76.5 198.5t66.5 133.5l29 40l-121 84l-31 -45q-31 -45 -72 -142t-82 -220 q-45 -129 -73.5 -317.5t-28.5 -378.5z" />
<glyph unicode=")" horiz-adv-x="540" d="M45 -524l121 -84l31 45q30 45 73 143t84 219q43 131 72 318.5t29 376.5q0 186 -30 375.5t-71 318.5q-35 104 -83 212.5t-72 149.5l-33 47l-121 -84l29 -38q29 -45 66.5 -133.5t74.5 -198.5q41 -123 67.5 -296t26.5 -351q0 -176 -26.5 -352.5t-65.5 -295.5 q-33 -98 -77 -197.5t-66 -131.5z" />
<glyph unicode="*" horiz-adv-x="931" d="M94 1012l76 -140l242 187l-23 -330h154l-21 328l240 -185l78 140l-265 145l265 141l-78 140l-240 -181l21 324h-154l23 -326l-242 183l-76 -140l262 -141z" />
<glyph unicode="+" horiz-adv-x="1064" d="M72 668h381v-430h159v430h383v159h-383v430h-159v-430h-381v-159z" />
<glyph unicode="," horiz-adv-x="477" d="M113 96q0 -53 34.5 -90t85.5 -37q10 0 15 2v-16q0 -72 -20.5 -135.5t-37.5 -81.5q-16 -16 -22 -21l41 -49l16 8q15 9 38.5 36.5t45.5 64.5q25 39 39 113.5t14 164.5q0 168 -129 168q-51 0 -85.5 -36.5t-34.5 -90.5z" />
<glyph unicode="-" d="M129 487h518v160h-518v-160z" />
<glyph unicode="." horiz-adv-x="464" d="M113 96q0 -53 34.5 -90t85.5 -37t85 37t34 90q0 55 -33 90q-35 37 -86 37t-85.5 -36.5t-34.5 -90.5z" />
<glyph unicode="/" horiz-adv-x="782" d="M59 -508h160l506 1942h-160z" />
<glyph unicode="0" horiz-adv-x="1339" d="M98 729q0 -209 60 -381q61 -174 194 -276.5t318 -102.5q141 0 253.5 59.5t182.5 168.5q137 213 137 532q0 215 -71.5 381t-201.5 258t-300 92t-300 -92t-201 -258t-71 -381zM281 729q0 172 49 302t137 199.5t203 69.5t203 -69.5t137 -199.5t49 -302q0 -164 -39 -293 q-41 -135 -132 -220t-218 -85q-123 0 -211 78t-133 214t-45 306z" />
<glyph unicode="1" horiz-adv-x="907" d="M14 1067l88 -139l453 307v-1235h182v1434h-178z" />
<glyph unicode="2" horiz-adv-x="1124" d="M70 1303l82 -140l41 33q43 39 133 70.5t184 31.5q139 0 223 -87t84 -224q0 -76 -16 -147q-20 -74 -42 -117t-73 -94q-57 -57 -90 -86t-117 -94l-387 -310v-139h942v160h-637l256 202q135 113 208 201t106.5 187.5t33.5 236.5q0 215 -129 344t-358 129q-74 0 -150.5 -16.5 t-130.5 -38.5q-43 -18 -86 -44t-59 -40z" />
<glyph unicode="3" horiz-adv-x="1179" d="M47 162l57 -47q63 -55 189.5 -100.5t253.5 -45.5q166 0 286.5 50.5t185 143.5t64.5 216q0 168 -84 256t-223 100q264 53 264 334q0 115 -59 204t-170 138t-260 49q-70 0 -141.5 -15t-122.5 -38q-41 -18 -85 -44t-59 -40l-18 -16l80 -144l41 33q41 39 130 70.5t175 31.5 q143 0 224 -61t81 -168q0 -133 -99.5 -193.5t-267.5 -60.5v-162q187 0 299.5 -66.5t112.5 -207.5q0 -117 -95 -182.5t-259 -65.5q-63 0 -133 17.5t-117 41.5q-41 18 -83 48t-56 45l-19 16z" />
<glyph unicode="4" horiz-adv-x="1105" d="M49 328h668v-328h178v328h160v159h-160v396h-178v-396h-455l457 932h-195l-475 -960v-131z" />
<glyph unicode="5" horiz-adv-x="1181" d="M59 147l62 -45q70 -51 204 -93t265 -42q244 0 377 118t133 335q0 109 -29 194q-31 82 -78 135.5t-116 86.5q-68 31 -135.5 44t-151.5 13q-123 0 -250 -35l33 416h651v160h-817l-55 -795l59 23q68 27 173 47t196 20q156 0 247 -75.5t91 -233.5q0 -143 -85 -217t-245 -74 q-100 0 -218 39t-167 72q-29 18 -62 41z" />
<glyph unicode="6" horiz-adv-x="1212" d="M98 729q0 -354 140.5 -557t404.5 -203q143 0 254 59.5t173.5 164t62.5 237.5q0 227 -129.5 350t-368.5 123q-201 0 -356 -149q6 254 118.5 399t302.5 145q76 0 154 -23.5t107 -45.5l34 -27l80 139l-41 31q-47 33 -143 60.5t-195 27.5q-190 0 -324 -90t-204 -255t-70 -386 zM283 594q158 145 352 145q143 0 228 -82t85 -227q0 -301 -305 -301q-154 0 -247 118t-113 347z" />
<glyph unicode="7" horiz-adv-x="1005" d="M31 1274h731l-504 -1274h211l504 1305v129h-942v-160z" />
<glyph unicode="8" horiz-adv-x="1243" d="M96 369q0 -184 132 -292t397 -108q256 0 389 112t133 298q0 268 -264 381q219 90 219 330q0 109 -58.5 192.5t-167 130.5t-251.5 47q-147 0 -258 -47t-169.5 -131t-58.5 -192q0 -254 252 -347q-295 -117 -295 -374zM281 379q0 231 344 313q338 -57 338 -303 q0 -115 -86 -185.5t-252 -70.5t-255 68.5t-89 177.5zM324 1079q0 96 82.5 157.5t218.5 61.5q131 0 210.5 -61t79.5 -158q0 -117 -55 -178t-166 -88l-69 14l-35 7q-48 8 -107 28q-35 12 -57.5 27.5t-50.5 46.5q-51 49 -51 143z" />
<glyph unicode="9" horiz-adv-x="1214" d="M86 999q0 -227 129 -350t369 -123q201 0 356 150q-8 -256 -120.5 -400.5t-301.5 -144.5q-76 0 -153.5 23.5t-106.5 46.5l-35 26l-80 -139l41 -31q47 -33 143.5 -60.5t194.5 -27.5q190 0 324.5 90.5t204 255t69.5 385.5q0 354 -140 557t-405 203q-143 0 -253.5 -59.5 t-173 -163.5t-62.5 -238zM270 999q0 301 305 301q154 0 246 -118.5t113 -345.5q-152 -145 -350 -146q-144 0 -229 82t-85 227z" />
<glyph unicode=":" horiz-adv-x="493" d="M127 864q0 -53 34 -90t85 -37t85 37t34 90q0 55 -33 90q-33 37 -86 37q-51 0 -85 -36.5t-34 -90.5zM129 96q0 -53 34 -90t85 -37t85 37t34 90q0 55 -33 90q-33 37 -86 37q-51 0 -85 -36.5t-34 -90.5z" />
<glyph unicode=";" horiz-adv-x="509" d="M131 96q0 -53 34 -90t85 -37q10 0 14 2v-16q0 -72 -20.5 -135.5t-36.5 -81.5q-16 -16 -23 -21l41 -49l17 8q33 15 84 101q25 41 40 115.5t15 162.5q0 78 -34 123t-97 45q-51 0 -85 -36.5t-34 -90.5zM131 864q0 -53 34 -90t85 -37t85 37t34 90q0 55 -33 90q-35 37 -86 37 t-85 -36.5t-34 -90.5z" />
<glyph unicode="&#x3c;" horiz-adv-x="743" d="M82 444l551 -409v190l-420 305l420 308v190l-551 -410v-174z" />
<glyph unicode="=" horiz-adv-x="987" d="M131 276h727v160h-727v-160zM131 729h727v160h-727v-160z" />
<glyph unicode="&#x3e;" horiz-adv-x="743" d="M111 35l551 409v174l-551 410v-190l417 -308l-417 -305v-190z" />
<glyph unicode="?" horiz-adv-x="1042" d="M53 1303l80 -140l43 35q49 39 142.5 70.5t185.5 31.5q123 0 197.5 -78.5t74.5 -203.5q0 -90 -39 -174t-92 -137q-45 -43 -106.5 -81t-100.5 -55l-43 -14v-238h174v160l41 19q43 20 100.5 64t110.5 100q59 63 98 158t39 198q0 201 -120.5 321.5t-333.5 120.5 q-74 0 -149.5 -16.5t-131.5 -38.5q-45 -18 -90 -44t-59 -40zM356 96q0 -53 34 -90t85 -37t85 37t34 90q0 55 -33 90q-33 37 -86 37q-51 0 -85 -36.5t-34 -90.5z" />
<glyph unicode="@" horiz-adv-x="1873" d="M88 516q0 -307 114.5 -546.5t334.5 -366.5l86 133q-183 112 -276 314t-93 466q0 246 87 428t244.5 280.5t366.5 98.5q207 0 365 -92t245 -263t87 -401q0 -446 -267 -446q-25 0 -34 12t-9 43v668l-45 37q-49 39 -147 72.5t-195 33.5q-152 0 -265.5 -63.5t-173.5 -178 t-60 -260.5q0 -231 113.5 -373.5t314.5 -142.5q172 0 299 133h2q10 -61 45 -87.5t100 -26.5q221 0 353 148.5t132 430.5q0 266 -106.5 470t-301 316.5t-452.5 112.5t-453.5 -119.5t-303 -334.5t-107.5 -496zM618 485q0 162 88.5 260.5t235.5 98.5t234 -62v-542 q-115 -127 -258 -127q-145 0 -222.5 96t-77.5 276z" />
<glyph unicode="A" horiz-adv-x="1302" d="M37 0h188l135 383h582l135 -383h189l-518 1434h-193zM420 543l231 655l230 -655h-461z" />
<glyph unicode="B" horiz-adv-x="1286" d="M170 0h575q209 0 332 102.5t123 278.5q0 156 -68.5 240t-224.5 112q229 68 230 338q0 172 -104.5 267.5t-311.5 95.5h-551v-1434zM350 160v489h375q139 0 217 -65.5t78 -192.5q0 -231 -277 -231h-393zM350 799v475h367q110 0 172.5 -57.5t62.5 -155.5 q0 -121 -65.5 -191.5t-163.5 -70.5h-373z" />
<glyph unicode="C" horiz-adv-x="1378" d="M94 729q0 -324 164 -532q84 -109 225.5 -168.5t325.5 -59.5q90 0 181 18.5t155 43.5q51 20 104.5 51t69.5 45l22 18l-57 146l-22 -17q-45 -39 -162 -88q-57 -25 -135 -41t-154 -16q-260 0 -396 163t-136 437q0 268 141 419.5t389 151.5q104 0 202.5 -29.5t133.5 -56.5 l39 -32l82 143l-43 35q-49 37 -166 68.5t-248 31.5q-223 0 -384 -90t-246 -255t-85 -386z" />
<glyph unicode="D" horiz-adv-x="1423" d="M170 0h461q332 0 514 182.5t182 526.5q0 354 -179 539.5t-517 185.5h-461v-1434zM350 160v1114h244q276 0 413.5 -138.5t137.5 -426.5q-1 -285 -137 -418q-134 -131 -400 -131h-8h-250z" />
<glyph unicode="E" horiz-adv-x="1232" d="M170 0h977v160h-797v461h649v159h-649v494h797v160h-977v-1434z" />
<glyph unicode="F" horiz-adv-x="1187" d="M170 0h180v621h649v159h-649v494h797v160h-977v-1434z" />
<glyph unicode="G" horiz-adv-x="1419" d="M94 729q0 -324 164 -532q84 -109 225.5 -168.5t325.5 -59.5q86 0 172 18.5t147 43.5q49 20 97.5 50t66.5 46q14 14 21 18v576h-602v-160h432v-344q-162 -88 -332 -88q-260 0 -396 163t-136 437q0 268 141 419.5t389 151.5q70 0 136.5 -12t109.5 -31q37 -16 71.5 -35.5 t44.5 -29.5l13 -14l82 147l-43 35q-49 37 -166 68.5t-248 31.5q-223 0 -384 -90t-246 -255t-85 -386z" />
<glyph unicode="H" horiz-adv-x="1431" d="M170 0h180v635h731v-635h181v1434h-181v-639h-731v639h-180v-1434z" />
<glyph unicode="I" horiz-adv-x="520" d="M170 0h180v1434h-180v-1434z" />
<glyph unicode="J" horiz-adv-x="534" d="M68 18l88 -96l22 8q25 11 57.5 39.5t63.5 65.5q33 41 54.5 110.5t21.5 149.5v1139h-178v-1143q0 -72 -32 -143.5t-61 -98.5q-23 -23 -36 -31z" />
<glyph unicode="K" horiz-adv-x="1351" d="M170 0h180v545h268q37 0 48 2l208 -408q43 -84 104.5 -117.5t160.5 -33.5q53 0 108.5 20.5t79.5 38.5l25 21l-54 102l-16 -10q-18 -13 -48 -22t-54 -9q-96 0 -142 88l-194 367q154 72 222.5 279.5t68.5 570.5h-181q0 -375 -75 -551q-76 -178 -261 -178h-268v729h-180 v-1434z" />
<glyph unicode="L" horiz-adv-x="1144" d="M170 0h969v160h-789v1274h-180v-1434z" />
<glyph unicode="M" horiz-adv-x="1593" d="M170 0h180v985l385 -985h123l387 985v-985h178v1434h-159l-461 -1153l-473 1153h-160v-1434z" />
<glyph unicode="N" horiz-adv-x="1404" d="M170 0h180v1096l735 -1096h150v1434h-178v-1106l-731 1106h-156v-1434z" />
<glyph unicode="O" horiz-adv-x="1548" d="M92 719q0 -215 70 -375q72 -172 231.5 -273.5t380.5 -101.5q170 0 304 58.5t216 165.5q162 211 162 526q0 221 -83 389t-237.5 260t-361.5 92q-209 0 -363.5 -92t-236.5 -260t-82 -389zM274 719q0 274 133.5 427.5t366.5 153.5t366.5 -153.5t133.5 -427.5 q0 -266 -130 -428t-370 -162q-244 0 -372 161t-128 429z" />
<glyph unicode="P" horiz-adv-x="1310" d="M170 0h180v426h389q246 0 377 122t131 363q0 256 -132 389.5t-376 133.5h-569v-1434zM350 586v688h389q324 0 324 -363q0 -166 -79 -245.5t-245 -79.5h-389z" />
<glyph unicode="Q" horiz-adv-x="1552" d="M94 719q0 -315 152.5 -518t437.5 -228q6 -270 135 -391t387 -121v160q-180 0 -260 79t-84 273q193 14 334 125q262 207 262 621q0 221 -83 389t-237.5 260t-361.5 92q-209 0 -363.5 -92t-236.5 -260t-82 -389zM276 719q0 274 133.5 427.5t366.5 153.5t366.5 -153.5 t133.5 -427.5q0 -266 -130 -428t-370 -162q-244 0 -372 161t-128 429z" />
<glyph unicode="R" horiz-adv-x="1341" d="M170 0h180v524h266q57 0 107 6l164 -391q41 -88 94 -119.5t154 -31.5q53 0 108 20.5t80 38.5l25 21l-54 102l-18 -10q-21 -13 -52.5 -22t-58.5 -9q-82 0 -114 88l-150 352q244 102 244 420q0 444 -483 445h-492v-1434zM350 684v590h316q154 0 224.5 -68.5t70.5 -216.5 q0 -156 -81 -230.5t-259 -74.5h-271z" />
<glyph unicode="S" horiz-adv-x="1263" d="M74 170l16 -20q20 -20 65.5 -50t104.5 -59q61 -33 162.5 -52.5t214.5 -19.5q172 0 292 54.5t181 150.5t61 221q0 123 -50 198t-159.5 121t-302.5 81q-190 37 -272 96t-82 172q0 106 87 167.5t257 61.5q115 0 232.5 -34.5t165.5 -65.5l53 -41l65 160l-55 37 q-66 41 -197 76.5t-268 35.5q-170 0 -292 -55t-183 -149.5t-61 -213.5q0 -100 34.5 -169.5t108.5 -116.5q70 -45 153.5 -74t227.5 -59q145 -31 217 -61t99.5 -74t27.5 -121q0 -111 -90 -174.5t-250 -63.5q-82 0 -164 18.5t-137 45.5q-47 23 -93 53t-61 45q-14 12 -20 20z " />
<glyph unicode="T" horiz-adv-x="1275" d="M12 1274h537v-1274h180v1274h535v160h-1252v-160z" />
<glyph unicode="U" horiz-adv-x="1390" d="M156 606q0 -229 55 -367.5t172 -202t307 -67.5q199 4 317.5 67.5t173 201t54.5 368.5v828h-178v-838q0 -172 -37 -274.5t-117 -147.5t-213 -45q-190 0 -273 108.5t-83 358.5v838h-178v-828z" />
<glyph unicode="V" horiz-adv-x="1366" d="M31 1434l555 -1434h194l555 1434h-211l-442 -1207l-436 1207h-215z" />
<glyph unicode="W" horiz-adv-x="2037" d="M43 1434l457 -1434h194l324 1151l325 -1151h195l455 1434h-211l-340 -1149l-328 1149h-192l-328 -1149l-340 1149h-211z" />
<glyph unicode="X" horiz-adv-x="1300" d="M23 0h215l403 590l414 -590h225l-512 715l510 719h-215l-404 -588l-411 588h-225l509 -713z" />
<glyph unicode="Y" horiz-adv-x="1370" d="M37 1434l559 -891v-543h178v541l559 893h-217l-430 -715l-424 715h-225z" />
<glyph unicode="Z" horiz-adv-x="1140" d="M84 0h973v160h-752l752 1114v160h-973v-160h743l-743 -1114v-160z" />
<glyph unicode="[" horiz-adv-x="620" d="M154 -608h413v141h-270v1897h270v141h-413v-2179z" />
<glyph unicode="\" horiz-adv-x="782" d="M57 1434l506 -1942h160l-506 1942h-160z" />
<glyph unicode="]" horiz-adv-x="620" d="M51 -467v-141h416v2179h-416v-141h273v-1897h-273z" />
<glyph unicode="^" horiz-adv-x="1007" d="M94 1051h139l273 417l268 -417h139l-317 540h-180z" />
<glyph unicode="_" horiz-adv-x="962" d="M129 -10v-119h705v119h-705z" />
<glyph unicode="`" horiz-adv-x="468" d="M31 1522l211 -402h151l-160 402h-202z" />
<glyph unicode="a" horiz-adv-x="1058" d="M68 225q0 -125 79.5 -190.5t223.5 -65.5q197 0 336 127h2q25 -108 143 -108h2q121 0 203 67l-31 95l-18 -7q-23 -8 -51.5 -16t-47.5 -8q-43 0 -43 55v510q0 147 -97 225t-286 78q-182 0 -360 -65l35 -136l39 15q49 16 119.5 29.5t129.5 13.5q137 0 195.5 -46t58.5 -153 v-168q-82 16 -143 17q-489 0 -489 -269zM233 229q0 137 326 138q66 0 141 -11v-135q-120 -112 -294 -112q-172 0 -173 120z" />
<glyph unicode="b" horiz-adv-x="1101" d="M131 113l45 -35q53 -41 150.5 -75t193.5 -34q150 0 263.5 63.5t175 178.5t61.5 260q0 233 -113.5 374.5t-316.5 141.5q-158 0 -293 -129v678l-166 -53v-1370zM297 172v545q102 127 258 127q299 0 299 -373q0 -170 -87 -264t-237 -94t-233 59z" />
<glyph unicode="c" horiz-adv-x="978" d="M82 477q0 -147 56.5 -262t164 -180.5t258.5 -65.5q92 0 186.5 34t135.5 63q37 29 43 34l-52 127l-34 -28q-35 -33 -115 -59.5t-160 -26.5q-150 0 -232.5 99t-82.5 265t84 266.5t233 100.5q72 0 140.5 -19.5t91.5 -36.5l24 -20l64 125l-35 25q-37 27 -119 48t-170 21 q-152 0 -260 -65.5t-164.5 -181t-56.5 -263.5z" />
<glyph unicode="d" horiz-adv-x="1169" d="M84 485q0 -231 113.5 -373.5t314.5 -142.5q166 0 299 133h2q25 -114 146 -114h2q121 0 202 67l-30 95l-19 -7q-22 -8 -51 -16t-47 -8q-45 0 -45 55v1362l-166 -53v-547q-109 51 -230 51q-150 0 -260 -63.5t-170.5 -178t-60.5 -260.5zM250 485q0 170 87 264.5t236 94.5 q147 0 234 -62v-542q-108 -127 -258 -127q-299 0 -299 372z" />
<glyph unicode="e" horiz-adv-x="1044" d="M82 477q0 -150 56.5 -264.5t165 -179t259.5 -64.5q59 0 123 14.5t105 34.5q33 16 67.5 40t50.5 38l17 15l-52 116l-34 -28q-39 -33 -117 -59.5t-158 -26.5q-133 0 -215 81.5t-98 221.5h698l4 18q17 45 17 119q0 135 -84 272q-45 74 -133 118t-201 44q-150 0 -255 -65.5 t-160.5 -181t-55.5 -263.5zM252 547q14 135 93 216t208 81q125 0 193.5 -79t68.5 -200v-18h-563z" />
<glyph unicode="f" horiz-adv-x="710" d="M45 817h156v-817h166v817h313v141h-313v203q0 121 41 175.5t127 54.5q94 0 149 -31l57 117l-24 14q-29 18 -83 32.5t-108 14.5q-326 0 -325 -383v-197h-119z" />
<glyph unicode="g" horiz-adv-x="1026" d="M70 -270q0 -139 119.5 -218t338.5 -79q221 0 337 84t116 233q0 301 -457 301q-104 0 -147 15q-49 16 -49 59q0 25 15 47.5t36 32.5q37 16 82 22h16l53 -2q201 0 313.5 102.5t112.5 276.5q0 186 -131 291q170 98 170 408h-164q0 -328 -135 -340q-87 24 -162 24h-6 q-215 0 -330.5 -105.5t-115.5 -277.5q0 -238 203 -334q-119 -55 -119 -155q0 -94 78 -142q-174 -74 -174 -243zM369 -86q73 -6 155 -6q291 0 291 -158q0 -174 -287 -174q-292 0 -292 173q0 116 133 165zM322 776q73 68 204 68q123 0 194 -67.5t71 -172.5q0 -115 -67 -175 t-194 -60q-282 0 -282 233q0 106 74 174z" />
<glyph unicode="h" horiz-adv-x="1136" d="M137 0h166v692q129 152 287 152q102 0 145 -55.5t43 -184.5v-434q0 -98 36 -140t118 -42q123 0 205 67l-31 95l-19 -7q-59 -24 -100 -24q-43 0 -43 55v449q0 178 -80 271t-233 93q-55 0 -115 -18q-43 -12 -92 -41q-37 -25 -68 -51l-43 -41l-10 -11v711l-166 -53v-1483z " />
<glyph unicode="i" horiz-adv-x="440" d="M100 1251q0 -53 33 -88t84 -35t84 35t33 88q0 55 -33 88q-35 35 -84 35q-51 0 -84 -34.5t-33 -88.5zM137 0h166v958h-166v-958z" />
<glyph unicode="j" horiz-adv-x="440" d="M8 -457l76 -96l22 8q51 25 119 105q35 41 56.5 109.5t21.5 150.5v1138h-166v-1142q0 -72 -31.5 -143.5t-60.5 -98.5q-23 -23 -37 -31zM100 1251q0 -53 33 -88t84 -35t84 35t33 88q0 55 -33 88q-35 35 -84 35q-51 0 -84 -34.5t-33 -88.5z" />
<glyph unicode="k" horiz-adv-x="1107" d="M137 0h166v371h205l53 4l139 -262q43 -70 87 -97.5t116 -27.5q51 0 103.5 21.5t70.5 39.5l23 23l-43 86l-17 -11q-69 -28 -104 -28q-57 0 -92 55l-137 244q205 119 204 540h-166q0 -231 -59 -339.5t-184 -108.5h-199v1026l-166 -53v-1483z" />
<glyph unicode="l" horiz-adv-x="538" d="M133 170q0 -98 38 -140t126 -42q147 0 248 73l-31 95l-25 -9q-26 -10 -64 -19t-67 -9q-59 0 -59 65v1352l-166 -53v-1313z" />
<glyph unicode="m" horiz-adv-x="1748" d="M133 0h166v692q129 152 287 152q102 0 145 -55.5t43 -184.5v-604h166v623q0 47 -6 90q125 131 268 131q102 0 145.5 -55.5t43.5 -184.5v-434q0 -98 35.5 -140t117.5 -42q123 0 205 67l-31 95l-18 -7q-60 -24 -101 -24q-43 0 -43 55v449q0 178 -79.5 271t-233.5 93 q-82 0 -165 -40t-128 -85q-39 -41 -41 -53q-70 178 -282 178q-55 0 -115 -18q-43 -12 -92 -41q-37 -25 -68 -51l-43 -41l-10 -11v146l-166 -53v-918z" />
<glyph unicode="n" horiz-adv-x="1132" d="M133 0h166v692q141 141 287 142q102 0 145 -53.5t43 -176.5v-434q0 -98 36 -140t120 -42q121 0 203 67l-31 95l-19 -7q-59 -24 -100 -24q-43 0 -43 55v449q0 178 -80 271t-233 93q-55 0 -115 -18q-43 -12 -92 -41q-37 -25 -68 -51l-43 -41l-10 -11v146l-166 -53v-918z " />
<glyph unicode="o" horiz-adv-x="1124" d="M82 477q0 -147 56.5 -262t165 -180.5t259.5 -65.5q152 0 259.5 65.5t163.5 180.5t56 262q0 221 -122 365q-124 145 -357 145q-152 0 -260 -65.5t-164.5 -181t-56.5 -263.5zM250 477q0 166 82 266.5t231 100.5q150 0 232 -100.5t82 -266.5t-82 -265t-232 -99 q-152 0 -231 102q-82 100 -82 262z" />
<glyph unicode="p" horiz-adv-x="1107" d="M133 -539h166v557q115 -49 248 -49q221 0 348 134.5t127 367.5q0 240 -111.5 378t-316.5 138q-178 0 -295 -143v127l-166 -53v-1457zM299 170v547q102 127 258 127q299 0 299 -373q0 -170 -82 -264t-225 -94q-166 0 -250 57z" />
<glyph unicode="q" horiz-adv-x="1101" d="M82 485q0 -231 114.5 -373.5t315.5 -142.5q158 0 291 127v-635h166v1381l-11 8q-25 25 -67 51q-49 31 -129 57q-90 29 -178 29q-152 0 -265.5 -63.5t-175 -178t-61.5 -260.5zM250 485q0 170 86 264.5t237 94.5q150 0 232 -62v-544q-111 -125 -258 -125q-297 0 -297 372z " />
<glyph unicode="r" horiz-adv-x="753" d="M133 0h166v631q129 203 274 203q88 0 119 -25l45 145l-12 9q-16 8 -51 16t-74 8q-16 0 -49 -4q-41 -10 -88 -37q-39 -23 -72 -55q-35 -35 -51 -57q-33 -45 -33 -46l-8 -12v195l-166 -53v-918z" />
<glyph unicode="s" horiz-adv-x="962" d="M74 92l43 -31q49 -35 151.5 -63.5t212.5 -28.5q190 0 296 71t106 196q0 160 -121 225q-61 33 -113.5 49t-132.5 31q-14 2 -95 16t-118 47t-37 88q0 70 64.5 111t181.5 41q76 0 152.5 -19.5t109.5 -38.5l35 -22l61 121l-39 24q-43 29 -134 53.5t-187 24.5 q-201 0 -307.5 -83t-106.5 -212q0 -88 33 -135q4 -6 16.5 -25.5t26.5 -33t35 -23.5l49 -29q20 -12 59 -20l60 -16l63 -13l58 -12q119 -20 168 -52t49 -97q0 -55 -63.5 -89t-170.5 -34q-86 0 -176 26.5t-129 50.5l-43 31z" />
<glyph unicode="t" horiz-adv-x="753" d="M45 817h156v-526q0 -322 297 -322q135 0 229 82l-57 117l-19 -12q-20 -15 -60 -27t-81 -12q-76 0 -109.5 40t-33.5 128v532h313v141h-313v291l-166 -53v-238h-119z" />
<glyph unicode="u" horiz-adv-x="1132" d="M127 334q0 -178 81 -271.5t234 -93.5q193 0 332 137h2q20 -118 146 -118h2q119 0 202 67l-30 95l-19 -7q-59 -24 -100 -24q-43 0 -43 55v797l-166 -53v-682q-129 -123 -287 -123q-100 0 -144 56t-44 183v606h-166v-624z" />
<glyph unicode="v" horiz-adv-x="1021" d="M39 958l385 -958h172l385 958h-182l-289 -784l-289 784h-182z" />
<glyph unicode="w" horiz-adv-x="1497" d="M47 958l326 -958h184l186 758l199 -758h182l328 958h-180l-238 -790l-207 790h-172l-194 -782l-234 782h-180z" />
<glyph unicode="x" horiz-adv-x="995" d="M37 958l344 -512l-338 -446h215l238 356l237 -356h215l-340 467l357 491h-215l-254 -383l-246 383h-213z" />
<glyph unicode="y" horiz-adv-x="1015" d="M41 958l381 -958h18l-213 -539h154l596 1497h-180l-285 -782l-293 782h-178z" />
<glyph unicode="z" horiz-adv-x="987" d="M88 0h813v141h-594l594 676v141h-813v-141h604l-604 -676v-141z" />
<glyph unicode="{" horiz-adv-x="581" d="M66 416h20q100 0 100 -127v-514q0 -354 332 -355v142q-94 0 -141 50t-47 163v565q0 113 -78 154q16 4 31 14q18 14 32.5 52t14.5 87v535q0 213 188 213v141q-332 0 -332 -348v-500q0 -66 -27.5 -97.5t-72.5 -31.5h-20v-143z" />
<glyph unicode="|" horiz-adv-x="448" d="M154 -608h141v2173h-141v-2173z" />
<glyph unicode="}" horiz-adv-x="581" d="M63 -438v-142q332 1 332 355v514q0 127 101 127h20v143h-20q-45 0 -73 32t-28 97v500q0 348 -332 348v-141q188 0 189 -213v-535q0 -49 15.5 -87t33.5 -52q14 -10 27 -14q-76 -39 -76 -154v-565q0 -113 -47 -163t-142 -50z" />
<glyph unicode="~" horiz-adv-x="923" d="M111 668l88 -74l18 24q23 29 59.5 52.5t69.5 23.5q43 0 117 -61t139 -62q45 0 84 18.5t64 45.5q20 20 37.5 49t23.5 47l6 19l-92 55l-12 -27q-17 -28 -47.5 -53t-59.5 -25q-33 0 -108 64q-80 61 -152 61q-43 0 -84 -16t-69 -39q-23 -18 -44.5 -43t-29.5 -41z" />
<glyph unicode="&#xad;" d="M129 487h518v160h-518v-160z" />
<glyph unicode="&#x2000;" horiz-adv-x="988" />
<glyph unicode="&#x2001;" horiz-adv-x="1976" />
<glyph unicode="&#x2002;" horiz-adv-x="988" />
<glyph unicode="&#x2003;" horiz-adv-x="1976" />
<glyph unicode="&#x2004;" horiz-adv-x="658" />
<glyph unicode="&#x2005;" horiz-adv-x="494" />
<glyph unicode="&#x2006;" horiz-adv-x="329" />
<glyph unicode="&#x2007;" horiz-adv-x="329" />
<glyph unicode="&#x2008;" horiz-adv-x="247" />
<glyph unicode="&#x2009;" horiz-adv-x="395" />
<glyph unicode="&#x200a;" horiz-adv-x="109" />
<glyph unicode="&#x2010;" d="M129 487h518v160h-518v-160z" />
<glyph unicode="&#x2011;" d="M129 487h518v160h-518v-160z" />
<glyph unicode="&#x2012;" d="M129 487h518v160h-518v-160z" />
<glyph unicode="&#x2013;" horiz-adv-x="1282" d="M129 487h1024v160h-1024v-160z" />
<glyph unicode="&#x2014;" horiz-adv-x="2306" d="M129 487h2048v160h-2048v-160z" />
<glyph unicode="&#x202f;" horiz-adv-x="395" />
<glyph unicode="&#x205f;" horiz-adv-x="494" />
<glyph unicode="&#x25fc;" horiz-adv-x="962" d="M0 0v963h963v-963h-963z" />
</font>
</defs>
</svg>
